<?xml version="1.0" encoding="UTF-8"?>
<svg width="204px" height="32px" viewBox="0 0 204 32" version="1.1" xmlns="http://www.w3.org/2000/svg" xmlns:xlink="http://www.w3.org/1999/xlink">
    <!-- Generator: Sketch 64 (93537) - https://sketch.com -->
    <title>the.gives</title>
    <desc>Created with Sketch.</desc>
    <g id="Page-1" stroke="none" stroke-width="1" fill="none" fill-rule="evenodd">
        <g id="Home" transform="translate(-528.000000, -212.000000)" fill="#FFEB03" fill-rule="nonzero">
            <path d="M543.435,243 L543.435,220.86 L548.97,220.86 L548.97,212.985 L528,212.985 L528,220.86 L533.535,220.86 L533.535,243 L543.435,243 Z M561.026303,243 L561.026303,231.885 L566.381303,231.885 L566.381303,243 L576.011303,243 L576.011303,212.985 L566.381303,212.985 L566.381303,223.2 L561.026303,223.2 L561.026303,212.985 L551.441303,212.985 L551.441303,243 L561.026303,243 Z M598.057605,243 L598.057605,235.125 L589.642605,235.125 L589.642605,231.66 L597.607605,231.66 L597.607605,224.19 L589.642605,224.19 L589.642605,220.86 L597.742605,220.86 L597.742605,212.985 L580.057605,212.985 L580.057605,243 L598.057605,243 Z M611.058908,243 L611.058908,235.485 L601.428908,235.485 L601.428908,243 L611.058908,243 Z M629.955211,243.765 C631.425211,243.765 632.850211,243.57 634.230211,243.18 C635.610211,242.79 636.892711,242.235 638.077711,241.515 C639.262711,240.795 640.335211,239.9325 641.295211,238.9275 C642.255211,237.9225 643.080211,236.805 643.770211,235.575 L643.770211,235.575 L643.770211,225.585 L632.205211,225.585 L632.205211,231.885 L634.905211,231.885 C634.305211,232.635 633.585211,233.2275 632.745211,233.6625 C631.905211,234.0975 630.975211,234.315 629.955211,234.315 C629.085211,234.315 628.267711,234.1575 627.502711,233.8425 C626.737711,233.5275 626.070211,233.0925 625.500211,232.5375 C624.930211,231.9825 624.480211,231.315 624.150211,230.535 C623.820211,229.755 623.655211,228.915 623.655211,228.015 C623.655211,227.115 623.805211,226.275 624.105211,225.495 C624.405211,224.715 624.817711,224.0475 625.342711,223.4925 C625.867711,222.9375 626.490211,222.5025 627.210211,222.1875 C627.930211,221.8725 628.725211,221.715 629.595211,221.715 C630.375211,221.715 631.170211,221.8425 631.980211,222.0975 C632.790211,222.3525 633.465211,222.72 634.005211,223.2 L634.005211,223.2 L639.450211,215.46 C638.790211,214.89 637.965211,214.365 636.975211,213.885 C636.135211,213.465 635.100211,213.09 633.870211,212.76 C632.640211,212.43 631.185211,212.265 629.505211,212.265 C627.345211,212.265 625.327711,212.6775 623.452711,213.5025 C621.577711,214.3275 619.957711,215.4525 618.592711,216.8775 C617.227711,218.3025 616.155211,219.975 615.375211,221.895 C614.595211,223.815 614.205211,225.855 614.205211,228.015 C614.205211,230.235 614.617711,232.305 615.442711,234.225 C616.267711,236.145 617.392711,237.81 618.817711,239.22 C620.242711,240.63 621.915211,241.74 623.835211,242.55 C625.755211,243.36 627.795211,243.765 629.955211,243.765 Z M657.311513,243 L657.311513,212.985 L647.141513,212.985 L647.141513,243 L657.311513,243 Z M678.367816,243 L690.067816,212.985 L679.582816,212.985 L674.452816,226.035 L669.367816,212.985 L658.882816,212.985 L670.582816,243 L678.367816,243 Z M709.639119,243 L709.639119,235.125 L701.224119,235.125 L701.224119,231.66 L709.189119,231.66 L709.189119,224.19 L701.224119,224.19 L701.224119,220.86 L709.324119,220.86 L709.324119,212.985 L691.639119,212.985 L691.639119,243 L709.639119,243 Z M720.570421,243.765 C722.460421,243.765 724.095421,243.5175 725.475421,243.0225 C726.855421,242.5275 727.987921,241.8525 728.872921,240.9975 C729.757921,240.1425 730.410421,239.1375 730.830421,237.9825 C731.250421,236.8275 731.460421,235.59 731.460421,234.27 C731.460421,233.01 731.257921,231.87 730.852921,230.85 C730.447921,229.83 729.952921,228.915 729.367921,228.105 C728.782921,227.295 728.137921,226.575 727.432921,225.945 C726.727921,225.315 726.082921,224.76 725.497921,224.28 C724.912921,223.8 724.417921,223.38 724.012921,223.02 C723.607921,222.66 723.405421,222.36 723.405421,222.12 C723.405421,221.85 723.495421,221.64 723.675421,221.49 C723.855421,221.34 724.065421,221.235 724.305421,221.175 C724.545421,221.115 724.800421,221.0775 725.070421,221.0625 C725.340421,221.0475 725.565421,221.04 725.745421,221.04 C726.075421,221.04 726.390421,221.055 726.690421,221.085 C726.990421,221.115 727.260421,221.145 727.500421,221.175 C727.800421,221.205 728.070421,221.235 728.310421,221.265 L728.310421,221.265 L728.310421,212.85 C727.680421,212.76 727.035421,212.67 726.375421,212.58 C725.805421,212.52 725.160421,212.4525 724.440421,212.3775 C723.720421,212.3025 723.000421,212.265 722.280421,212.265 C720.900421,212.265 719.602921,212.4525 718.387921,212.8275 C717.172921,213.2025 716.115421,213.75 715.215421,214.47 C714.315421,215.19 713.610421,216.09 713.100421,217.17 C712.590421,218.25 712.335421,219.495 712.335421,220.905 C712.335421,222.165 712.545421,223.2825 712.965421,224.2575 C713.385421,225.2325 713.917921,226.11 714.562921,226.89 C715.207921,227.67 715.897921,228.36 716.632921,228.96 C717.367921,229.56 718.057921,230.1075 718.702921,230.6025 C719.347921,231.0975 719.880421,231.5475 720.300421,231.9525 C720.720421,232.3575 720.930421,232.755 720.930421,233.145 C720.930421,234.165 720.240421,234.675 718.860421,234.675 C718.080421,234.675 717.307921,234.63 716.542921,234.54 C715.777921,234.45 715.095421,234.33 714.495421,234.18 C713.775421,234.06 713.085421,233.895 712.425421,233.685 L712.425421,233.685 L712.425421,242.685 C713.145421,242.895 713.940421,243.075 714.810421,243.225 C715.560421,243.375 716.422921,243.5025 717.397921,243.6075 C718.372921,243.7125 719.430421,243.765 720.570421,243.765 Z" id="the.gives"></path>
        </g>
    </g>
</svg>